%TF.GenerationSoftware,KiCad,Pcbnew,(6.0.7)*%
%TF.CreationDate,2022-10-08T01:47:53-07:00*%
%TF.ProjectId,PhobGCC,50686f62-4743-4432-9e6b-696361645f70,rev?*%
%TF.SameCoordinates,Original*%
%TF.FileFunction,Soldermask,Bot*%
%TF.FilePolarity,Negative*%
%FSLAX46Y46*%
G04 Gerber Fmt 4.6, Leading zero omitted, Abs format (unit mm)*
G04 Created by KiCad (PCBNEW (6.0.7)) date 2022-10-08 01:47:53*
%MOMM*%
%LPD*%
G01*
G04 APERTURE LIST*
G04 Aperture macros list*
%AMRoundRect*
0 Rectangle with rounded corners*
0 $1 Rounding radius*
0 $2 $3 $4 $5 $6 $7 $8 $9 X,Y pos of 4 corners*
0 Add a 4 corners polygon primitive as box body*
4,1,4,$2,$3,$4,$5,$6,$7,$8,$9,$2,$3,0*
0 Add four circle primitives for the rounded corners*
1,1,$1+$1,$2,$3*
1,1,$1+$1,$4,$5*
1,1,$1+$1,$6,$7*
1,1,$1+$1,$8,$9*
0 Add four rect primitives between the rounded corners*
20,1,$1+$1,$2,$3,$4,$5,0*
20,1,$1+$1,$4,$5,$6,$7,0*
20,1,$1+$1,$6,$7,$8,$9,0*
20,1,$1+$1,$8,$9,$2,$3,0*%
%AMHorizOval*
0 Thick line with rounded ends*
0 $1 width*
0 $2 $3 position (X,Y) of the first rounded end (center of the circle)*
0 $4 $5 position (X,Y) of the second rounded end (center of the circle)*
0 Add line between two ends*
20,1,$1,$2,$3,$4,$5,0*
0 Add two circle primitives to create the rounded ends*
1,1,$1,$2,$3*
1,1,$1,$4,$5*%
G04 Aperture macros list end*
%ADD10O,1.600000X2.500000*%
%ADD11O,1.400000X2.000000*%
%ADD12R,1.400000X1.400000*%
%ADD13O,1.400000X1.400000*%
%ADD14C,1.600000*%
%ADD15O,1.600000X2.600000*%
%ADD16C,2.000000*%
%ADD17HorizOval,2.800000X-0.577898X0.161352X0.577898X-0.161352X0*%
%ADD18O,0.700000X2.000000*%
%ADD19O,0.800000X3.000000*%
%ADD20O,0.800000X2.000000*%
%ADD21O,2.000000X0.800000*%
%ADD22O,3.000000X0.800000*%
%ADD23O,2.800000X2.200000*%
%ADD24C,0.800000*%
%ADD25C,2.400000*%
%ADD26C,1.498000*%
%ADD27RoundRect,0.200000X-0.423205X-0.333013X-0.076795X-0.533013X0.423205X0.333013X0.076795X0.533013X0*%
%ADD28C,2.500000*%
%ADD29C,5.200000*%
%ADD30C,1.800000*%
%ADD31C,1.700000*%
%ADD32C,0.787400*%
%ADD33C,2.200000*%
%ADD34R,1.700000X1.700000*%
%ADD35HorizOval,0.800000X-0.599178X0.031402X0.599178X-0.031402X0*%
%ADD36HorizOval,0.800000X-1.098492X0.057570X1.098492X-0.057570X0*%
%ADD37HorizOval,0.800000X0.031402X0.599178X-0.031402X-0.599178X0*%
%ADD38HorizOval,0.800000X0.057570X1.098492X-0.057570X-1.098492X0*%
%ADD39HorizOval,2.800000X-0.568661X0.191376X0.568661X-0.191376X0*%
%ADD40HorizOval,1.600000X0.026168X0.499315X-0.026168X-0.499315X0*%
%ADD41RoundRect,0.250000X0.750000X-0.600000X0.750000X0.600000X-0.750000X0.600000X-0.750000X-0.600000X0*%
%ADD42O,2.000000X1.700000*%
%ADD43RoundRect,0.250000X-0.600000X-0.725000X0.600000X-0.725000X0.600000X0.725000X-0.600000X0.725000X0*%
%ADD44O,1.700000X1.950000*%
%ADD45RoundRect,0.250000X-0.750000X0.600000X-0.750000X-0.600000X0.750000X-0.600000X0.750000X0.600000X0*%
%ADD46RoundRect,0.375000X1.125000X0.375000X-1.125000X0.375000X-1.125000X-0.375000X1.125000X-0.375000X0*%
%ADD47O,3.000000X1.500000*%
%ADD48R,1.000000X0.700000*%
%ADD49RoundRect,0.250000X0.600000X0.750000X-0.600000X0.750000X-0.600000X-0.750000X0.600000X-0.750000X0*%
%ADD50O,1.700000X2.000000*%
%ADD51O,2.250000X3.250000*%
G04 APERTURE END LIST*
D10*
X130480052Y-49303830D03*
X139180052Y-49303830D03*
D11*
X137230052Y-37803830D03*
X134830052Y-37803830D03*
X132430052Y-37803830D03*
X82430052Y-37803830D03*
X84830052Y-37803830D03*
X87230052Y-37803830D03*
D10*
X89180052Y-49303830D03*
X80480052Y-49303830D03*
D12*
X102830052Y-27303830D03*
D13*
X100830052Y-27303830D03*
X98830052Y-27303830D03*
X96830052Y-27303830D03*
X94830052Y-27303830D03*
X92830052Y-27303830D03*
D14*
X44064052Y-106579830D03*
D15*
X37314052Y-107004830D03*
D16*
X44064052Y-98604830D03*
X44064052Y-104104830D03*
D15*
X50814052Y-95704830D03*
D17*
X49994052Y-106834830D03*
D14*
X44064052Y-96129830D03*
D17*
X38134052Y-95874830D03*
D18*
X42794052Y-111954830D03*
D19*
X44064052Y-111954830D03*
D20*
X45334052Y-111954830D03*
D21*
X54664052Y-102624830D03*
D22*
X54664052Y-101354830D03*
D21*
X54664052Y-100084830D03*
D23*
X169630052Y-77803830D03*
D24*
X166274072Y-53559865D03*
D25*
X156830052Y-42803830D03*
D16*
X48564052Y-101354830D03*
D26*
X158032938Y-36053830D03*
X161930052Y-38303830D03*
D27*
X156552445Y-32878119D03*
X158414400Y-33953119D03*
X163593231Y-36943119D03*
X165403225Y-37988119D03*
D16*
X157465432Y-33416779D03*
X164493898Y-37463119D03*
D28*
X155700406Y-37593894D03*
X161762584Y-41093894D03*
D24*
X138701106Y-63699081D03*
D29*
X72830052Y-72803830D03*
D30*
X103230052Y-52803830D03*
D14*
X93597000Y-45800000D03*
X96137000Y-45800000D03*
X98677000Y-45800000D03*
X101217000Y-45800000D03*
X103757000Y-45800000D03*
X106297000Y-45800000D03*
X108837000Y-45800000D03*
X111377000Y-45800000D03*
X113917000Y-45800000D03*
X116457000Y-45800000D03*
X118997000Y-45800000D03*
X121537000Y-45800000D03*
X124077000Y-45800000D03*
X126617000Y-45800000D03*
X126617000Y-40720000D03*
X126617000Y-38180000D03*
X126617000Y-30560000D03*
X124077000Y-30560000D03*
X121537000Y-30560000D03*
X118997000Y-30560000D03*
X116457000Y-30560000D03*
X113917000Y-30560000D03*
X111377000Y-30560000D03*
X108837000Y-30560000D03*
X106297000Y-30560000D03*
X103757000Y-30560000D03*
X101217000Y-30560000D03*
X98677000Y-30560000D03*
X96137000Y-30560000D03*
X93597000Y-30560000D03*
D16*
X54830052Y-62303830D03*
D31*
X114425000Y-26850000D03*
D32*
X56519052Y-82090830D03*
X57789052Y-82090830D03*
X59059052Y-82090830D03*
X57789052Y-84121680D03*
X59059052Y-84121680D03*
X56519052Y-84121680D03*
D16*
X39564052Y-101354830D03*
D33*
X79413430Y-63587208D03*
D34*
X116730052Y-26903830D03*
D14*
X59316903Y-54817145D03*
X59447743Y-52320571D03*
X59578583Y-49823997D03*
X66620052Y-43483830D03*
X69116626Y-43614670D03*
X71613200Y-43745510D03*
D35*
X79287075Y-52088564D03*
D36*
X79220608Y-53356823D03*
D35*
X79154141Y-54625083D03*
D37*
X69348633Y-63454002D03*
D38*
X68080374Y-63387535D03*
D37*
X66812114Y-63321068D03*
D16*
X68491211Y-55548293D03*
D39*
X74270207Y-58584904D03*
D14*
X68361680Y-58019901D03*
D16*
X68779059Y-50055831D03*
D40*
X75671583Y-47513073D03*
D39*
X63000063Y-47019220D03*
D14*
X68908590Y-47584223D03*
D40*
X61598687Y-58091051D03*
D30*
X43264052Y-86879830D03*
X116430052Y-52803830D03*
D32*
X52488052Y-84121680D03*
X53758052Y-82090830D03*
X52488052Y-82090830D03*
X51218052Y-82090830D03*
X53758052Y-84121680D03*
X51218052Y-84121680D03*
D29*
X58914052Y-91354830D03*
D24*
X151080052Y-57053830D03*
D31*
X111550000Y-26450000D03*
D16*
X164830052Y-62303830D03*
D24*
X143248724Y-40605989D03*
D33*
X57846674Y-42020451D03*
D41*
X168950000Y-69675000D03*
D42*
X168950000Y-67175000D03*
D43*
X158850000Y-79400000D03*
D44*
X161350000Y-79400000D03*
X163850000Y-79400000D03*
X166350000Y-79400000D03*
D45*
X162125000Y-67175000D03*
D42*
X162125000Y-69675000D03*
D46*
X64500000Y-86900000D03*
D47*
X64500000Y-88900000D03*
X64500000Y-90900000D03*
X64500000Y-92900000D03*
D48*
X114300000Y-43575000D03*
X116100000Y-43575000D03*
D49*
X56025000Y-68350000D03*
D50*
X53525000Y-68350000D03*
D51*
X84230052Y-70803830D03*
X88130052Y-70803830D03*
M02*
