M48
; DRILL file {KiCad (6.0.7)} date Sat Oct  8 01:47:56 2022
; FORMAT={-:-/ absolute / inch / decimal}
; #@! TF.CreationDate,2022-10-08T01:47:56-07:00
; #@! TF.GenerationSoftware,Kicad,Pcbnew,(6.0.7)
; #@! TF.FileFunction,NonPlated,1,2,NPTH
FMAT,2
INCH
; #@! TA.AperFunction,NonPlated,NPTH,ComponentDrill
T1C0.0310
; #@! TA.AperFunction,NonPlated,NPTH,ComponentDrill
T2C0.0630
; #@! TA.AperFunction,NonPlated,NPTH,ComponentDrill
T3C0.0709
; #@! TA.AperFunction,NonPlated,NPTH,ComponentDrill
T4C0.0787
; #@! TA.AperFunction,NonPlated,NPTH,ComponentDrill
T5C0.0866
; #@! TA.AperFunction,NonPlated,NPTH,ComponentDrill
T6C0.0945
; #@! TA.AperFunction,NonPlated,NPTH,ComponentDrill
T7C0.2047
%
G90
G05
T1
X2.0165Y-3.2319
X2.0165Y-3.3119
X2.0665Y-3.2319
X2.0665Y-3.3119
X2.1165Y-3.2319
X2.1165Y-3.3119
X2.2252Y-3.2319
X2.2252Y-3.3119
X2.2752Y-3.2319
X2.2752Y-3.3119
X2.3252Y-3.2319
X2.3252Y-3.3119
T2
X1.7348Y-3.7846
X1.7348Y-4.1961
X2.6914Y-2.2842
X2.7129Y-1.8734
T3
X1.7033Y-3.4205
X4.0642Y-2.0789
X4.5839Y-2.0789
T4
X1.5576Y-3.9903
X1.7348Y-3.8821
X1.7348Y-4.0986
X1.912Y-3.9903
X2.1587Y-2.4529
X2.6965Y-2.1869
X2.7078Y-1.9707
X6.4894Y-2.4529
T5
X2.2774Y-1.6543
X3.1265Y-2.5034
T6
X6.1744Y-1.6852
T7
X2.3195Y-3.5966
X2.8673Y-2.8663
T5
G00X6.6665Y-3.0631
M15
G01X6.6902Y-3.0631
M16
G05
T0
M30
