%TF.GenerationSoftware,KiCad,Pcbnew,(6.0.7)*%
%TF.CreationDate,2022-10-08T01:47:53-07:00*%
%TF.ProjectId,PhobGCC,50686f62-4743-4432-9e6b-696361645f70,rev?*%
%TF.SameCoordinates,Original*%
%TF.FileFunction,Profile,NP*%
%FSLAX46Y46*%
G04 Gerber Fmt 4.6, Leading zero omitted, Abs format (unit mm)*
G04 Created by KiCad (PCBNEW (6.0.7)) date 2022-10-08 01:47:53*
%MOMM*%
%LPD*%
G01*
G04 APERTURE LIST*
%TA.AperFunction,Profile*%
%ADD10C,0.050000*%
%TD*%
%TA.AperFunction,Profile*%
%ADD11C,0.100000*%
%TD*%
G04 APERTURE END LIST*
D10*
X165025000Y-37750000D02*
X163950000Y-37200000D01*
X165025000Y-37750000D02*
X165453702Y-37090450D01*
X163950000Y-37200000D02*
X164326724Y-36442437D01*
X158025000Y-33700000D02*
X158431761Y-33052833D01*
X156925000Y-33125000D02*
X157375000Y-32425000D01*
X156925000Y-33125000D02*
X158025000Y-33700000D01*
D11*
X47087071Y-79396723D02*
G75*
G03*
X47380051Y-80103830I1000329J223D01*
G01*
X58411434Y-98405393D02*
X59111945Y-98871899D01*
X119837179Y-27898205D02*
G75*
G03*
X120130051Y-28605312I999821J-95D01*
G01*
X54485052Y-84353787D02*
X55786052Y-84353787D01*
X141566063Y-69978229D02*
G75*
G03*
X142207323Y-70210936I641237J767129D01*
G01*
X86730046Y-25147681D02*
G75*
G03*
X86437158Y-25854793I707154J-707119D01*
G01*
X149437163Y-72810937D02*
G75*
G03*
X146837158Y-70210937I-2600063J-63D01*
G01*
X129337158Y-61185127D02*
X129337158Y-65396723D01*
X47087159Y-78337830D02*
X47087052Y-52810935D01*
X141566035Y-69978262D02*
G75*
G03*
X132837158Y-66810936I-8728835J-10444238D01*
G01*
X87851371Y-24440594D02*
G75*
G03*
X87144264Y-24733472I29J-1000106D01*
G01*
X157375000Y-32425000D02*
X154068625Y-30544030D01*
X64464052Y-95454830D02*
X67664052Y-95454830D01*
X157905055Y-81177599D02*
G75*
G03*
X158891046Y-82010937I986045J166699D01*
G01*
X149730051Y-76303830D02*
X150144264Y-76718043D01*
X133248222Y-29312419D02*
X121251371Y-29312419D01*
X172587158Y-80596723D02*
X172587158Y-50810937D01*
X60410052Y-81813830D02*
X59786052Y-81813787D01*
D10*
X86730052Y-35403830D02*
X82930052Y-35403830D01*
D11*
X47087159Y-78337830D02*
X47087052Y-79396723D01*
D10*
X132930052Y-35403830D02*
X132930052Y-32803830D01*
X136730052Y-35403830D02*
X132930052Y-35403830D01*
D11*
X60410052Y-81813818D02*
G75*
G03*
X61365343Y-81098229I-6652J1004318D01*
G01*
X120544264Y-29019526D02*
X120130051Y-28605312D01*
X149437158Y-72810937D02*
X149437158Y-75596723D01*
X87144264Y-24733473D02*
X86730051Y-25147686D01*
X73037158Y-82810937D02*
G75*
G03*
X61365344Y-81098229I-5961568J-3D01*
G01*
X60109662Y-97373713D02*
X59409152Y-96907208D01*
X133967355Y-29617578D02*
G75*
G03*
X133248222Y-29312419I-719155J-694822D01*
G01*
X59409157Y-96907201D02*
G75*
G03*
X58411434Y-98405393I-498857J-749099D01*
G01*
D10*
X82930052Y-32803830D02*
X86730052Y-32803830D01*
D11*
X172587145Y-50810937D02*
G75*
G03*
X165837158Y-37310937I-16874945J37D01*
G01*
X81237158Y-27810937D02*
X81237158Y-26983945D01*
X129337163Y-61185127D02*
G75*
G03*
X128589668Y-60217533I-999963J27D01*
G01*
X68664052Y-85354830D02*
X67663604Y-84353830D01*
X172294286Y-81303851D02*
G75*
G03*
X172587158Y-80596724I-707286J707151D01*
G01*
X81237158Y-26983945D02*
X74009997Y-26983945D01*
X171172944Y-82010916D02*
G75*
G03*
X171880051Y-81718044I56J999916D01*
G01*
X149437154Y-75596723D02*
G75*
G03*
X149730051Y-76303830I1000046J23D01*
G01*
X60408052Y-84353830D02*
X59786052Y-84353787D01*
X120544254Y-29019536D02*
G75*
G03*
X121251371Y-29312419I707146J707236D01*
G01*
X73037157Y-82810937D02*
G75*
G03*
X96201596Y-71184349I14500001J0D01*
G01*
X60408052Y-84353830D02*
X67663604Y-84353830D01*
X54485052Y-81813787D02*
X55786052Y-81813787D01*
X119544264Y-25147686D02*
X119130051Y-24733473D01*
X58394496Y-33850700D02*
G75*
G03*
X47087157Y-52810935I10242674J-18960240D01*
G01*
X150144250Y-76718057D02*
G75*
G03*
X150851370Y-77010937I707150J707257D01*
G01*
X130044250Y-66518057D02*
G75*
G03*
X130751370Y-66810937I707150J707257D01*
G01*
D10*
X82930052Y-35403830D02*
X82930052Y-32803830D01*
D11*
X81237158Y-27810937D02*
G75*
G03*
X86437158Y-27810937I2600000J0D01*
G01*
X119837134Y-25854793D02*
G75*
G03*
X119544265Y-25147686I-999834J93D01*
G01*
X129337154Y-65396723D02*
G75*
G03*
X129630051Y-66103830I1000046J23D01*
G01*
X129630051Y-66103830D02*
X130044264Y-66518043D01*
X164326724Y-36442437D02*
X158431761Y-33052833D01*
X130751371Y-66810937D02*
X132837158Y-66810937D01*
X150851371Y-77010937D02*
X152974967Y-77010937D01*
X50485052Y-81813787D02*
X49503052Y-81813830D01*
X40164052Y-85354830D02*
X40164052Y-87389158D01*
X171880051Y-81718043D02*
X172294264Y-81303830D01*
X154068636Y-30544011D02*
G75*
G03*
X153570154Y-30410936I-498536J-867289D01*
G01*
D10*
X132930052Y-32803830D02*
X136730052Y-32803830D01*
D11*
X74009997Y-26983956D02*
G75*
G03*
X73673600Y-27042225I203J-1001344D01*
G01*
X68664052Y-94454830D02*
X68664052Y-85354830D01*
X128589668Y-60217533D02*
G75*
G03*
X90551044Y-60358907I-18752508J-71857847D01*
G01*
X41164052Y-84350937D02*
X40164052Y-85354830D01*
X157905021Y-81177605D02*
G75*
G03*
X152974966Y-77010936I-4930121J-833395D01*
G01*
X73673598Y-27042219D02*
G75*
G03*
X58394497Y-33850704I37003002J-103587781D01*
G01*
D10*
X86730052Y-32803830D02*
X86730052Y-35403830D01*
D11*
X118422944Y-24440579D02*
X87851371Y-24440579D01*
X40164051Y-87389153D02*
G75*
G03*
X58564052Y-101354830I3899739J-13966017D01*
G01*
X50485052Y-84353787D02*
X41164052Y-84350937D01*
X48794245Y-81518063D02*
G75*
G03*
X49503052Y-81813830I714155J714263D01*
G01*
X86437158Y-25854793D02*
X86437158Y-27810937D01*
X89838912Y-61560312D02*
G75*
G03*
X96201595Y-71184349I16520788J4007012D01*
G01*
X153570154Y-30410937D02*
X135837158Y-30410937D01*
X165837158Y-37310937D02*
X165453702Y-37090450D01*
X119130042Y-24733482D02*
G75*
G03*
X118422945Y-24440579I-707042J-706918D01*
G01*
X59111961Y-98871907D02*
G75*
G03*
X58564052Y-101354830I5349039J-2482293D01*
G01*
X158891047Y-82010937D02*
X171172944Y-82010937D01*
D10*
X136730052Y-32803830D02*
X136730052Y-35403830D01*
D11*
X64464052Y-95454803D02*
G75*
G03*
X60109662Y-97373713I-1652J-5896197D01*
G01*
X119837158Y-27898205D02*
X119837158Y-25854793D01*
X133967377Y-29617557D02*
G75*
G03*
X135837158Y-30410937I1869723J1806457D01*
G01*
X142207323Y-70210937D02*
X146837158Y-70210937D01*
X47380052Y-80103830D02*
X48794265Y-81518043D01*
X67664052Y-95454830D02*
X68664052Y-94454830D01*
X90551052Y-60358936D02*
G75*
G03*
X89838916Y-61560310I259648J-965664D01*
G01*
X59786052Y-81813787D02*
X59786052Y-84353787D01*
X55786052Y-81813787D02*
X55786052Y-84353787D01*
X50485052Y-81813787D02*
X50485052Y-84353787D01*
X54485052Y-81813787D02*
X54485052Y-84353787D01*
M02*
