M48
; DRILL file {KiCad (6.0.7)} date Sat Oct  8 01:47:56 2022
; FORMAT={-:-/ absolute / inch / decimal}
; #@! TF.CreationDate,2022-10-08T01:47:56-07:00
; #@! TF.GenerationSoftware,Kicad,Pcbnew,(6.0.7)
; #@! TF.FileFunction,Plated,1,2,PTH
FMAT,2
INCH
; #@! TA.AperFunction,Plated,PTH,ViaDrill
T1C0.0157
; #@! TA.AperFunction,Plated,PTH,ComponentDrill
T2C0.0157
; #@! TA.AperFunction,Plated,PTH,ComponentDrill
T3C0.0236
; #@! TA.AperFunction,Plated,PTH,ComponentDrill
T4C0.0315
; #@! TA.AperFunction,Plated,PTH,ComponentDrill
T5C0.0374
; #@! TA.AperFunction,Plated,PTH,ComponentDrill
T6C0.0394
; #@! TA.AperFunction,Plated,PTH,ComponentDrill
T7C0.0433
; #@! TA.AperFunction,Plated,PTH,ComponentDrill
T8C0.0472
; #@! TA.AperFunction,Plated,PTH,ComponentDrill
T9C0.0591
; #@! TA.AperFunction,Plated,PTH,ComponentDrill
T10C0.0709
%
G90
G05
T1
X2.499Y-2.4291
X2.5423Y-3.6585
X2.5447Y-3.5715
X2.6547Y-1.2359
X2.7359Y-1.2324
X2.7727Y-1.3107
X2.7972Y-1.4341
X2.8474Y-1.1673
X3.0276Y-1.2835
X3.0406Y-1.5513
X3.0679Y-2.6457
X3.1085Y-1.5513
X3.1201Y-1.125
X3.1331Y-3.386
X3.1791Y-2.7057
X3.1972Y-2.645
X3.2825Y-2.6624
X3.3506Y-2.5984
X3.4301Y-1.7697
X3.4695Y-1.2677
X3.5079Y-1.3346
X3.572Y-2.949
X3.572Y-3.5789
X3.5876Y-1.377
X3.625Y-1.1565
X3.6764Y-1.3685
X3.7118Y-1.9175
X3.7591Y-3.386
X3.7933Y-1.6291
X3.8317Y-1.5669
X3.8628Y-1.5364
X3.8761Y-1.8741
X3.9646Y-1.7008
X3.9951Y-1.2638
X4.0255Y-1.7362
X4.0256Y-1.2943
X4.0659Y-1.8976
X4.1329Y-1.4892
X4.1368Y-1.9586
X4.1703Y-1.8976
X4.2254Y-1.1063
X4.2461Y-1.3199
X4.2506Y-1.8823
X4.253Y-1.4803
X4.3002Y-1.8671
X4.3002Y-1.9281
X4.3004Y-2.2049
X4.3474Y-1.9567
X4.5482Y-1.9281
X4.6742Y-1.6152
X4.6752Y-1.9498
X4.6909Y-1.7254
X4.7513Y-1.9018
X4.7532Y-1.9844
X4.7844Y-1.5846
X4.791Y-2.1025
X4.8154Y-1.5236
X4.8337Y-1.3465
X4.8544Y-1.4992
X4.8878Y-1.5571
X4.9126Y-1.9057
X4.923Y-1.6981
X4.9311Y-1.253
X4.9719Y-1.6953
X4.9872Y-1.2786
X4.9928Y-2.0435
X5.0007Y-1.6637
X5.001Y-1.7247
X5.0394Y-1.4727
X5.1654Y-1.2126
X5.1713Y-1.4075
X5.1752Y-1.5581
X5.3209Y-2.1939
X5.3511Y-1.9229
X5.3671Y-1.5925
X5.3754Y-1.809
X5.4118Y-1.7552
X5.4413Y-1.7247
X5.4478Y-1.4193
X5.4563Y-1.4709
X5.5059Y-1.5512
X5.8406Y-1.8357
X6.357Y-1.8015
T2
X5.4607Y-2.5078
X5.6397Y-1.5987
X5.948Y-2.2462
X6.5462Y-2.1087
T3
X1.6848Y-4.4077
X1.7348Y-4.4077
X1.7848Y-4.4077
X2.1521Y-3.9403
X2.1521Y-3.9903
X2.1521Y-4.0403
X2.6304Y-2.493
X2.6803Y-2.4956
X2.7303Y-2.4982
X3.1163Y-2.1506
X3.1189Y-2.1007
X3.1215Y-2.0507
T4
X3.2453Y-1.4883
X3.3398Y-1.4883
X3.4343Y-1.4883
X5.2138Y-1.4883
X5.3083Y-1.4883
X5.4028Y-1.4883
T5
X3.6547Y-1.075
X3.7335Y-1.075
X3.8122Y-1.075
X3.8909Y-1.075
X3.9697Y-1.075
X4.0484Y-1.075
X6.2539Y-3.126
X6.3524Y-3.126
X6.4508Y-3.126
X6.5492Y-3.126
T6
X2.1073Y-2.6909
X2.2057Y-2.6909
X2.3353Y-2.1582
X2.3405Y-2.0599
X2.3456Y-1.9616
X2.6228Y-1.712
X2.7211Y-1.7171
X2.8194Y-1.7223
X4.3917Y-1.0413
X4.5049Y-1.0571
X4.5957Y-1.0592
X6.3829Y-2.6447
X6.3829Y-2.7431
X6.6516Y-2.6447
X6.6516Y-2.7431
T7
X3.6849Y-1.2031
X3.6849Y-1.8031
X3.7849Y-1.2031
X3.7849Y-1.8031
X3.8849Y-1.2031
X3.8849Y-1.8031
X3.9849Y-1.2031
X3.9849Y-1.8031
X4.0849Y-1.2031
X4.0849Y-1.8031
X4.1849Y-1.2031
X4.1849Y-1.8031
X4.2849Y-1.2031
X4.2849Y-1.8031
X4.3849Y-1.2031
X4.3849Y-1.8031
X4.4849Y-1.2031
X4.4849Y-1.8031
X4.5849Y-1.2031
X4.5849Y-1.8031
X4.6849Y-1.2031
X4.6849Y-1.8031
X4.7849Y-1.2031
X4.7849Y-1.8031
X4.8849Y-1.2031
X4.8849Y-1.8031
X4.9849Y-1.2031
X4.9849Y-1.5031
X4.9849Y-1.6031
X4.9849Y-1.8031
X6.2218Y-1.4194
X6.3752Y-1.508
T8
X6.1994Y-1.3156
X6.4761Y-1.4749
T9
X6.1299Y-1.4801
X6.3686Y-1.6179
T4
G00X1.4691Y-4.2285
M15
G01X1.4691Y-4.197
M16
G05
G00X2.0006Y-3.7837
M15
G01X2.0006Y-3.7522
M16
G05
G00X2.4243Y-2.3028
M15
G01X2.426Y-2.2713
M16
G05
G00X2.9784Y-1.8863
M15
G01X2.98Y-1.8549
M16
G05
G00X3.1685Y-1.9549
M15
G01X3.1685Y-1.9273
M16
G05
G00X3.511Y-1.9549
M15
G01X3.511Y-1.9273
M16
G05
G00X5.137Y-1.9549
M15
G01X5.137Y-1.9273
M16
G05
G00X5.4795Y-1.9549
M15
G01X5.4795Y-1.9273
M16
G05
T10
G00X1.5241Y-3.781
M15
G01X1.4786Y-3.7682
M16
G05
G00X1.991Y-4.2124
M15
G01X1.9455Y-4.1997
M16
G05
G00X2.5027Y-1.8587
M15
G01X2.4579Y-1.8436
M16
G05
G00X2.9464Y-2.314
M15
G01X2.9016Y-2.299
M16
G05
T0
M30
